<svg xmlns="http://www.w3.org/2000/svg" width="600" height="600" viewBox="0 0 600 600" preserveAspectRatio="xMidYMid meet" role="img" aria-label="Módulo 0 PocketPiano">
  <defs>
    <linearGradient id="body" x1="0" y1="0" x2="0" y2="1">
      <stop offset="0" stop-color="#1c1d1f"/>
      <stop offset="1" stop-color="#050506"/>
    </linearGradient>
    <linearGradient id="white" x1="0" y1="0" x2="0" y2="1">
      <stop offset="0" stop-color="#ffffff"/>
      <stop offset="1" stop-color="#e5e5e5"/>
    </linearGradient>
    <linearGradient id="black" x1="0" y1="0" x2="0" y2="1">
      <stop offset="0" stop-color="#222"/>
      <stop offset="1" stop-color="#050505"/>
    </linearGradient>
    <filter id="shadow" x="-20%" y="-20%" width="140%" height="150%">
      <feDropShadow dx="0" dy="13.333" stdDeviation="13.333" flood-color="#000" flood-opacity=".55"/>
    </filter>
  </defs>
  <g transform="scale(1.6666667)" filter="url(#shadow)">
    <rect x="40" y="52" width="280" height="255" rx="3" fill="url(#body)" stroke="#333" stroke-width="2"/>
    <rect x="40" y="50" width="280" height="20" rx="4" fill="#252628"/>
    <rect x="42" y="69" width="276" height="3" fill="#080808"/>
    <text x="125" y="190" fill="#0b0b0c" stroke="#292a2c" stroke-width=".7" font-family="Arial,Helvetica,sans-serif" font-size="22" letter-spacing="2">POCKET</text>
    <text x="136" y="216" fill="#0b0b0c" stroke="#292a2c" stroke-width=".7" font-family="Arial,Helvetica,sans-serif" font-size="22" letter-spacing="2">PIANO</text>
    <rect x="244" y="72" width="37" height="235" fill="url(#white)" stroke="#111" stroke-width="2"/>
    <rect x="281" y="72" width="37" height="235" fill="url(#white)" stroke="#111" stroke-width="2"/>
    <rect x="244" y="72" width="74" height="8" fill="#a30a0a"/>
    <rect x="269" y="72" width="27" height="142" rx="0 0 3 3" fill="url(#black)" stroke="#050505" stroke-width="2"/>
    <line x1="281" y1="214" x2="281" y2="307" stroke="#1b1b1b" stroke-width="2"/>
  </g>
</svg>