<svg xmlns="http://www.w3.org/2000/svg" width="600" height="600" viewBox="105 72 390 402" preserveAspectRatio="none" role="img" aria-labelledby="title desc">
  <title id="title">Octava de piano de Do a Si</title>
  <desc id="desc">Representación vectorial ajustada al marco completo de 600 por 600 píxeles</desc>
  <defs>
    <linearGradient id="top" x1="0" y1="0" x2="0" y2="1">
      <stop offset="0" stop-color="#3b3d40"/>
      <stop offset="1" stop-color="#111214"/>
    </linearGradient>
    <linearGradient id="white" x1="0" y1="0" x2="0" y2="1">
      <stop offset="0" stop-color="#ffffff"/>
      <stop offset="1" stop-color="#ededed"/>
    </linearGradient>
    <linearGradient id="black" x1="0" y1="0" x2="0" y2="1">
      <stop offset="0" stop-color="#242424"/>
      <stop offset="1" stop-color="#050505"/>
    </linearGradient>
  </defs>
  <rect x="105" y="72" width="390" height="50" rx="7" fill="url(#top)" stroke="#050505" stroke-width="4"/>
  <rect x="108" y="117" width="384" height="7" fill="#e31919"/>
  <g stroke="#111" stroke-width="3" fill="url(#white)">
    <rect x="108" y="124" width="54.86" height="350" rx="0 0 4 4"/>
    <rect x="162.86" y="124" width="54.86" height="350" rx="0 0 4 4"/>
    <rect x="217.72" y="124" width="54.86" height="350" rx="0 0 4 4"/>
    <rect x="272.58" y="124" width="54.86" height="350" rx="0 0 4 4"/>
    <rect x="327.44" y="124" width="54.86" height="350" rx="0 0 4 4"/>
    <rect x="382.30" y="124" width="54.86" height="350" rx="0 0 4 4"/>
    <rect x="437.16" y="124" width="54.84" height="350" rx="0 0 4 4"/>
  </g>
  <g fill="url(#black)" stroke="#050505" stroke-width="3">
    <rect x="145" y="124" width="34" height="218" rx="0 0 4 4"/>
    <rect x="200" y="124" width="34" height="218" rx="0 0 4 4"/>
    <rect x="310" y="124" width="34" height="218" rx="0 0 4 4"/>
    <rect x="365" y="124" width="34" height="218" rx="0 0 4 4"/>
    <rect x="420" y="124" width="34" height="218" rx="0 0 4 4"/>
  </g>
  <g opacity=".18" stroke="#fff" stroke-width="2">
    <line x1="153" y1="134" x2="153" y2="325"/>
    <line x1="208" y1="134" x2="208" y2="325"/>
    <line x1="318" y1="134" x2="318" y2="325"/>
    <line x1="373" y1="134" x2="373" y2="325"/>
    <line x1="428" y1="134" x2="428" y2="325"/>
  </g>
</svg>