<svg xmlns="http://www.w3.org/2000/svg" viewBox="0 0 1949 855" role="img" aria-labelledby="title">
  <title id="title">PocketPiano</title>
  <path fill="#fff" fill-rule="evenodd" d="M1079 427L1070 444L1070 828L1074 839L1102 848L1183 848L1208 843L1217 829L1217 707L1224 696L1240 693L1249 699L1352 844L1447 848L1471 843L1480 827L1476 432L1463 423L1353 423L1343 427L1333 443L1332 517L1323 526L1311 527L1233 437L1216 425L1091 423ZM754 429L586 824L589 839L604 848L716 847L728 837L751 771L759 768L876 769L907 833L922 847L1024 848L1039 842L1051 822L1047 803L867 436L849 423L768 423ZM437 424L422 435L415 452L416 828L426 842L437 847L548 846L560 838L567 822L566 446L556 429L542 423ZM300 439L244 425L27 423L13 426L0 441L0 833L9 843L23 848L134 845L143 835L144 732L147 710L154 701L166 696L254 695L293 689L332 673L365 643L378 620L387 587L388 551L384 525L372 497L358 478L335 458ZM1694 418L1651 428L1604 450L1576 471L1544 508L1527 539L1513 584L1508 628L1511 677L1522 721L1542 761L1572 796L1600 818L1635 837L1699 854L1763 854L1805 845L1850 825L1879 804L1911 768L1933 727L1946 676L1945 592L1933 549L1915 514L1897 490L1859 457L1825 437L1779 422L1730 416ZM240 19L186 5L14 5L0 14L0 328L7 335L104 336L112 326L112 247L116 227L122 221L133 218L196 218L225 214L259 201L285 178L297 156L303 132L304 107L300 81L280 47L260 30ZM1626 8L1617 17L1614 27L1614 75L1621 92L1634 99L1707 99L1717 108L1717 316L1720 326L1738 337L1813 337L1826 332L1834 321L1835 107L1839 101L1847 99L1937 97L1948 80L1948 22L1945 15L1926 4L1639 4ZM1347 9L1338 24L1338 318L1342 327L1358 337L1583 337L1600 329L1605 319L1605 271L1597 257L1587 253L1461 253L1451 246L1453 200L1529 197L1540 192L1547 182L1547 128L1538 116L1525 112L1457 112L1452 107L1453 89L1565 86L1582 82L1594 66L1594 22L1589 12L1572 4L1360 4ZM999 8L990 21L993 327L1010 337L1090 337L1102 331L1108 321L1110 212L1183 324L1194 334L1315 336L1321 325L1206 151L1314 28L1317 10L1306 4L1209 6L1196 15L1110 111L1108 20L1099 7L1011 4ZM790 13L759 27L729 47L707 69L686 103L674 146L673 185L678 222L690 255L705 279L732 306L757 322L792 336L841 344L904 341L937 332L957 320L970 302L945 239L930 235L905 243L876 245L834 233L806 205L799 186L798 162L808 123L823 105L836 97L858 91L884 91L930 104L944 99L968 49L969 33L961 22L944 11L899 0L849 0ZM440 3L406 14L373 33L352 52L332 79L317 114L310 147L309 183L316 226L325 251L343 280L369 306L397 324L431 337L462 343L501 343L530 339L557 330L589 312L617 286L633 263L648 226L653 202L654 158L648 120L639 95L621 65L603 45L571 22L544 10L514 2L459 0Z"/>
</svg>
